<svg aria-hidden="true" style="position: absolute; width: 0; height: 0; overflow: hidden;" version="1.1" xmlns="http://www.w3.org/2000/svg" xmlns:xlink="http://www.w3.org/1999/xlink">
<defs>
<symbol id="icon-instagram" viewBox="0 0 32 32">
<path fill="#e4405f" style="fill: var(--color1, #e4405f)" d="M16 0c-4.347 0-4.889 0.020-6.596 0.096-1.704 0.080-2.864 0.348-3.884 0.744-1.052 0.408-1.945 0.956-2.835 1.845s-1.439 1.781-1.845 2.835c-0.396 1.020-0.665 2.18-0.744 3.884-0.080 1.707-0.096 2.249-0.096 6.596s0.020 4.889 0.096 6.596c0.080 1.703 0.348 2.864 0.744 3.884 0.408 1.051 0.956 1.945 1.845 2.835 0.889 0.888 1.781 1.439 2.835 1.845 1.021 0.395 2.181 0.665 3.884 0.744 1.707 0.080 2.249 0.096 6.596 0.096s4.889-0.020 6.596-0.096c1.703-0.080 2.864-0.349 3.884-0.744 1.051-0.408 1.945-0.957 2.835-1.845 0.888-0.889 1.439-1.78 1.845-2.835 0.395-1.020 0.665-2.181 0.744-3.884 0.080-1.707 0.096-2.249 0.096-6.596s-0.020-4.889-0.096-6.596c-0.080-1.703-0.349-2.865-0.744-3.884-0.408-1.052-0.957-1.945-1.845-2.835-0.889-0.889-1.78-1.439-2.835-1.845-1.020-0.396-2.181-0.665-3.884-0.744-1.707-0.080-2.249-0.096-6.596-0.096zM16 2.88c4.271 0 4.78 0.021 6.467 0.095 1.56 0.073 2.407 0.332 2.969 0.553 0.749 0.289 1.28 0.636 1.843 1.195 0.559 0.56 0.905 1.092 1.195 1.841 0.219 0.563 0.48 1.409 0.551 2.969 0.076 1.688 0.093 2.195 0.093 6.467s-0.020 4.78-0.099 6.467c-0.081 1.56-0.341 2.407-0.561 2.969-0.299 0.749-0.639 1.28-1.199 1.843-0.559 0.559-1.099 0.905-1.84 1.195-0.56 0.219-1.42 0.48-2.98 0.551-1.699 0.076-2.199 0.093-6.479 0.093-4.281 0-4.781-0.020-6.479-0.099-1.561-0.081-2.421-0.341-2.981-0.561-0.759-0.299-1.28-0.639-1.839-1.199-0.561-0.559-0.92-1.099-1.2-1.84-0.22-0.56-0.479-1.42-0.56-2.98-0.060-1.68-0.081-2.199-0.081-6.459 0-4.261 0.021-4.781 0.081-6.481 0.081-1.56 0.34-2.419 0.56-2.979 0.28-0.76 0.639-1.28 1.2-1.841 0.559-0.559 1.080-0.919 1.839-1.197 0.56-0.221 1.401-0.481 2.961-0.561 1.7-0.060 2.2-0.080 6.479-0.080zM16 7.784c-4.54 0-8.216 3.68-8.216 8.216 0 4.54 3.68 8.216 8.216 8.216 4.54 0 8.216-3.68 8.216-8.216 0-4.54-3.68-8.216-8.216-8.216zM16 21.333c-2.947 0-5.333-2.387-5.333-5.333s2.387-5.333 5.333-5.333 5.333 2.387 5.333 5.333-2.387 5.333-5.333 5.333zM26.461 7.46c0 1.060-0.861 1.92-1.92 1.92-1.060 0-1.92-0.861-1.92-1.92s0.861-1.919 1.92-1.919c1.057-0.001 1.92 0.86 1.92 1.919z"></path>
</symbol>
<symbol id="icon-facebook" viewBox="0 0 32 32">
<path fill="#1976d2" style="fill: var(--color1, #1976d2)" opacity="0.999" d="M3.281-0.031c8.458 0 16.917 0 25.375 0 1.792 0.417 2.896 1.521 3.313 3.313 0 8.458 0 16.917 0 25.375-0.417 1.792-1.521 2.896-3.313 3.313-2.229 0-4.458 0-6.688 0 0-3.667 0-7.333 0-11 1.001 0.021 2.001-0 3-0.063 0.661-1.639 1.328-3.274 2-4.906-1.667-0.031-3.333-0.042-5-0.031-0.010-1.459 0-2.917 0.031-4.375 0.125-0.334 0.365-0.531 0.719-0.594 1.083-0.031 2.166-0.042 3.25-0.031 0-1.667 0-3.333 0-5-1.584-0.010-3.167 0-4.75 0.031-2.446 0.405-4.103 1.769-4.969 4.094-0.083 0.375-0.167 0.75-0.25 1.125-0.031 1.583-0.042 3.166-0.031 4.75-1.333 0-2.667 0-4 0 0 1.667 0 3.333 0 5 1.333 0 2.667 0 4 0 0 3.667 0 7.333 0 11-4.229 0-8.458 0-12.688 0-1.792-0.417-2.896-1.521-3.313-3.313 0-8.458 0-16.917 0-25.375 0.417-1.792 1.521-2.896 3.313-3.313z"></path>
<path fill="#f9f9f9" style="fill: var(--color2, #f9f9f9)" d="M21.969 31.969c-2 0-4 0-6 0 0-3.667 0-7.333 0-11-1.333 0-2.667 0-4 0 0-1.667 0-3.333 0-5 1.333 0 2.667 0 4 0-0.010-1.584 0-3.167 0.031-4.75 0.083-0.375 0.167-0.75 0.25-1.125 0.866-2.324 2.522-3.689 4.969-4.094 1.583-0.031 3.166-0.042 4.75-0.031 0 1.667 0 3.333 0 5-1.084-0.010-2.167 0-3.25 0.031-0.354 0.062-0.593 0.26-0.719 0.594-0.031 1.458-0.042 2.916-0.031 4.375 1.667-0.010 3.333 0 5 0.031-0.672 1.632-1.339 3.267-2 4.906-0.999 0.062-1.999 0.083-3 0.063 0 3.667 0 7.333 0 11z"></path>
</symbol>
<symbol id="icon-tiktok" viewBox="0 0 29 32">
<path fill="#ff004f" style="fill: var(--color3, #ff004f)" d="M20.936 11.522c2.061 1.473 4.586 2.339 7.313 2.339v-5.245c-0.516 0-1.031-0.054-1.536-0.161v4.128c-2.727 0-5.251-0.866-7.313-2.339v10.703c0 5.354-4.343 9.694-9.699 9.694-1.999 0-3.856-0.604-5.4-1.64 1.761 1.8 4.218 2.917 6.935 2.917 5.357 0 9.7-4.34 9.7-9.695v-10.703h-0zM22.83 6.231c-1.053-1.15-1.745-2.636-1.895-4.28v-0.675h-1.455c0.366 2.088 1.616 3.873 3.35 4.954zM7.689 24.895c-0.589-0.771-0.907-1.715-0.905-2.685 0-2.449 1.986-4.434 4.437-4.434 0.457-0 0.911 0.070 1.346 0.208v-5.362c-0.509-0.070-1.022-0.099-1.535-0.088v4.174c-0.435-0.138-0.89-0.208-1.347-0.208-2.451 0-4.437 1.985-4.437 4.434 0 1.732 0.993 3.231 2.441 3.961z"></path>
<path fill="#000" style="fill: var(--color4, #000)" d="M19.4 10.245c2.062 1.472 4.586 2.339 7.313 2.339v-4.128c-1.522-0.324-2.869-1.119-3.883-2.225-1.734-1.082-2.983-2.866-3.35-4.954h-3.823v20.948c-0.009 2.442-1.992 4.42-4.437 4.42-1.441 0-2.721-0.686-3.532-1.75-1.448-0.73-2.441-2.23-2.441-3.961 0-2.449 1.986-4.434 4.437-4.434 0.47 0 0.922 0.073 1.347 0.208v-4.173c-5.263 0.109-9.495 4.406-9.495 9.692 0 2.639 1.054 5.030 2.764 6.778 1.543 1.036 3.401 1.64 5.4 1.64 5.357 0 9.699-4.34 9.699-9.695l-0-10.703z"></path>
<path fill="#00f2ea" style="fill: var(--color5, #00f2ea)" d="M26.713 8.456v-1.116c-1.373 0.002-2.718-0.382-3.883-1.109 1.031 1.128 2.388 1.906 3.883 2.225zM19.48 1.277c-0.035-0.2-0.062-0.4-0.080-0.602v-0.675h-5.278v20.948c-0.008 2.442-1.991 4.419-4.437 4.419-0.693 0.001-1.377-0.161-1.996-0.473 0.811 1.063 2.091 1.75 3.532 1.75 2.445 0 4.428-1.977 4.437-4.419v-20.948l3.823-0zM11.032 12.533v-1.188c-0.441-0.060-0.886-0.090-1.331-0.090-5.357 0-9.7 4.34-9.7 9.694 0 3.357 1.707 6.315 4.3 8.055-1.711-1.748-2.764-4.14-2.764-6.778 0-5.285 4.232-9.583 9.495-9.692z"></path>
</symbol>
<symbol id="icon-youtube" viewBox="0 0 46 32">
<path fill="#f00" style="fill: var(--color6, #f00)" d="M44.508 4.991c-0.261-0.965-0.77-1.844-1.477-2.551s-1.586-1.216-2.551-1.477c-3.532-0.963-17.746-0.963-17.746-0.963s-14.215 0.029-17.747 0.992c-0.965 0.261-1.844 0.77-2.551 1.477s-1.216 1.586-1.477 2.551c-1.068 6.275-1.483 15.837 0.029 21.861 0.261 0.965 0.77 1.844 1.477 2.551s1.586 1.216 2.551 1.477c3.532 0.963 17.746 0.963 17.746 0.963s14.214 0 17.746-0.963c0.965-0.261 1.844-0.77 2.551-1.477s1.216-1.586 1.477-2.551c1.127-6.284 1.474-15.84-0.029-21.891z"></path>
<path fill="#fff" style="fill: var(--color7, #fff)" d="M18.21 22.766l11.792-6.83-11.792-6.83v13.66z"></path>
</symbol>
<symbol id="icon-github" viewBox="0 0 32 32">
<path d="M16 2.667c-1.751 0-3.485 0.345-5.102 1.015s-3.088 1.652-4.326 2.89c-2.5 2.5-3.905 5.892-3.905 9.428 0 5.893 3.827 10.893 9.12 12.667 0.667 0.107 0.88-0.307 0.88-0.667v-2.253c-3.693 0.8-4.48-1.787-4.48-1.787-0.613-1.547-1.48-1.96-1.48-1.96-1.213-0.827 0.093-0.8 0.093-0.8 1.333 0.093 2.040 1.373 2.040 1.373 1.16 2.027 3.12 1.427 3.88 1.107 0.12-0.867 0.467-1.453 0.84-1.787-2.96-0.333-6.067-1.48-6.067-6.56 0-1.48 0.507-2.667 1.373-3.613-0.133-0.333-0.6-1.72 0.133-3.52 0 0 1.12-0.36 3.667 1.36 1.053-0.293 2.2-0.44 3.333-0.44s2.28 0.147 3.333 0.44c2.547-1.72 3.667-1.36 3.667-1.36 0.733 1.8 0.267 3.187 0.133 3.52 0.867 0.947 1.373 2.133 1.373 3.613 0 5.093-3.12 6.213-6.093 6.547 0.48 0.413 0.92 1.227 0.92 2.467v3.653c0 0.36 0.213 0.787 0.893 0.667 5.293-1.787 9.107-6.773 9.107-12.667 0-1.751-0.345-3.485-1.015-5.102s-1.652-3.088-2.89-4.326c-1.238-1.238-2.708-2.22-4.326-2.89s-3.352-1.015-5.102-1.015z"></path>
</symbol>
<symbol id="icon-google" viewBox="0 0 32 32">
<path fill="#ffc107" style="fill: var(--color8, #ffc107)" d="M29.074 13.389h-1.074v-0.055h-12v5.333h7.535c-1.099 3.105-4.053 5.333-7.535 5.333-4.418 0-8-3.582-8-8s3.582-8 8-8c2.039 0 3.895 0.769 5.307 2.026l3.771-3.771c-2.381-2.219-5.567-3.588-9.079-3.588-7.363 0-13.333 5.97-13.333 13.333s5.97 13.333 13.333 13.333c7.363 0 13.333-5.97 13.333-13.333 0-0.894-0.092-1.767-0.259-2.611z"></path>
<path fill="#ff3d00" style="fill: var(--color9, #ff3d00)" d="M4.204 9.794l4.381 3.213c1.185-2.935 4.056-5.007 7.415-5.007 2.039 0 3.895 0.769 5.307 2.026l3.771-3.771c-2.381-2.219-5.567-3.588-9.079-3.588-5.121 0-9.563 2.891-11.796 7.127z"></path>
<path fill="#4caf50" style="fill: var(--color10, #4caf50)" d="M16 29.333c3.444 0 6.573-1.318 8.939-3.461l-4.127-3.492c-1.383 1.053-3.074 1.622-4.813 1.62-3.468 0-6.413-2.211-7.522-5.297l-4.348 3.35c2.207 4.318 6.688 7.281 11.87 7.281z"></path>
<path fill="#1976d2" style="fill: var(--color1, #1976d2)" d="M29.074 13.389h-1.074v-0.055h-12v5.333h7.535c-0.526 1.478-1.473 2.769-2.725 3.714l0.002-0.001 4.127 3.492c-0.292 0.265 4.394-3.205 4.394-9.871 0-0.894-0.092-1.767-0.259-2.611z"></path>
</symbol>
</defs>
</svg>