<svg aria-hidden="true" style="position: absolute; width: 0; height: 0; overflow: hidden;" version="1.1" xmlns="http://www.w3.org/2000/svg" xmlns:xlink="http://www.w3.org/1999/xlink">
<defs>

<symbol id="icon-bold" viewBox="0 0 32 32">
<path d="M20.8 14.387c1.293-0.893 2.2-2.36 2.2-3.72 0-3.013-2.333-5.333-5.333-5.333h-8.333v18.667h9.387c2.787 0 4.947-2.267 4.947-5.053 0-2.027-1.147-3.76-2.867-4.56zM13.333 8.667h4c1.107 0 2 0.893 2 2s-0.893 2-2 2h-4v-4zM18 20.667h-4.667v-4h4.667c1.107 0 2 0.893 2 2s-0.893 2-2 2z"></path>
</symbol>

<symbol id="icon-unordered-list" viewBox="0 0 32 32">
<path d="M5.333 14c-1.107 0-2 0.893-2 2s0.893 2 2 2c1.107 0 2-0.893 2-2s-0.893-2-2-2zM5.333 6c-1.107 0-2 0.893-2 2s0.893 2 2 2c1.107 0 2-0.893 2-2s-0.893-2-2-2zM5.333 22c-1.107 0-2 0.907-2 2s0.907 2 2 2c1.093 0 2-0.907 2-2s-0.893-2-2-2zM9.333 25.333h18.667v-2.667h-18.667v2.667zM9.333 17.333h18.667v-2.667h-18.667v2.667zM9.333 6.667v2.667h18.667v-2.667h-18.667z"></path>
</symbol>

<symbol id="icon-ordered-list" viewBox="0 0 32 32">
<path d="M2.667 22.667h2.667v0.667h-1.333v1.333h1.333v0.667h-2.667v1.333h4v-5.333h-4v1.333zM4 10.667h1.333v-5.333h-2.667v1.333h1.333v4zM2.667 14.667h2.4l-2.4 2.8v1.2h4v-1.333h-2.4l2.4-2.8v-1.2h-4v1.333zM9.333 6.667v2.667h18.667v-2.667h-18.667zM9.333 25.333h18.667v-2.667h-18.667v2.667zM9.333 17.333h18.667v-2.667h-18.667v2.667z"></path>
</symbol>

<symbol id="icon-image-solid" viewBox="0 0 32 32">
<path d="M28 25.333v-18.667c0-1.467-1.2-2.667-2.667-2.667h-18.667c-1.467 0-2.667 1.2-2.667 2.667v18.667c0 1.467 1.2 2.667 2.667 2.667h18.667c1.467 0 2.667-1.2 2.667-2.667zM11.333 18l3.333 4.013 4.667-6.013 6 8h-18.667l4.667-6z"></path>
</symbol>

<symbol id="icon-preview-solid" viewBox="0 0 32 32">
<path d="M16 6c-6.667 0-12.36 4.147-14.667 10 2.307 5.853 8 10 14.667 10s12.36-4.147 14.667-10c-2.307-5.853-8-10-14.667-10zM16 22.667c-3.68 0-6.667-2.987-6.667-6.667s2.987-6.667 6.667-6.667c3.68 0 6.667 2.987 6.667 6.667s-2.987 6.667-6.667 6.667zM16 12c-2.213 0-4 1.787-4 4s1.787 4 4 4c2.213 0 4-1.787 4-4s-1.787-4-4-4z"></path>
</symbol>

<symbol id="icon-strikethrough" viewBox="0 0 32 32">
<path d="M9.133 9.44c0-3.613 3.467-5.44 7.187-5.44 2.187 0 4 0.653 5.2 1.707 1.027 0.867 1.947 2.307 1.947 4.32h-4.013c0-0.413-0.067-0.787-0.2-1.133-0.387-1.147-1.6-1.707-3-1.707-2.48 0-3.12 1.36-3.12 2.267 0 0.64 0.333 1.173 0.987 1.613 0.507 0.333 1.027 0.64 1.88 0.933h-6.147c-0.28-0.453-0.72-1.187-0.72-2.56zM28 16v-2.667h-24v2.667h12.827c1.533 0.6 2.613 1 2.613 2.627 0 1.333-1.080 2.227-3.040 2.227-2.053 0-3.907-0.72-3.907-3.347h-3.96c0 0.733 0.107 1.507 0.32 2.107 1.080 3.053 4.387 4.4 7.56 4.4 3.027 0 7.067-1.187 7.067-5.4 0-0.4-0.013-1.547-0.64-2.587h5.16v-0.027z"></path>
</symbol>

<symbol id="icon-image-outline" viewBox="0 0 32 32">
<path d="M25.333 6.667v18.667h-18.667v-18.667h18.667zM25.333 4h-18.667c-1.467 0-2.667 1.2-2.667 2.667v18.667c0 1.467 1.2 2.667 2.667 2.667h18.667c1.467 0 2.667-1.2 2.667-2.667v-18.667c0-1.467-1.2-2.667-2.667-2.667zM18.853 15.813l-4 5.16-2.853-3.453-4 5.147h16l-5.147-6.853z"></path>
</symbol>

<symbol id="icon-preview-outline" viewBox="0 0 32 32">
<path d="M16 8.667c2.452-0.008 4.856 0.676 6.936 1.973s3.752 3.155 4.824 5.36c-2.2 4.493-6.693 7.333-11.76 7.333s-9.56-2.84-11.76-7.333c1.072-2.205 2.744-4.063 4.824-5.36s4.485-1.981 6.936-1.973zM16 6c-6.667 0-12.36 4.147-14.667 10 2.307 5.853 8 10 14.667 10s12.36-4.147 14.667-10c-2.307-5.853-8-10-14.667-10zM16 12.667c0.884 0 1.732 0.351 2.357 0.976s0.976 1.473 0.976 2.357-0.351 1.732-0.976 2.357c-0.625 0.625-1.473 0.976-2.357 0.976s-1.732-0.351-2.357-0.976c-0.625-0.625-0.976-1.473-0.976-2.357s0.351-1.732 0.976-2.357c0.625-0.625 1.473-0.976 2.357-0.976zM16 10c-3.307 0-6 2.693-6 6s2.693 6 6 6c3.307 0 6-2.693 6-6s-2.693-6-6-6z"></path>
</symbol>

<symbol id="icon-checklist" viewBox="0 0 32 32">
<path d="M29.333 10.667c0-0.733-0.6-1.333-1.333-1.333h-9.333c-0.733 0-1.333 0.6-1.333 1.333s0.6 1.333 1.333 1.333h9.333c0.733 0 1.333-0.6 1.333-1.333zM17.333 21.333c0 0.733 0.6 1.333 1.333 1.333h9.333c0.733 0 1.333-0.6 1.333-1.333s-0.6-1.333-1.333-1.333h-9.333c-0.733 0-1.333 0.6-1.333 1.333zM13.96 6.173c0.52 0.52 0.52 1.36 0 1.88l-5.64 5.667c-0.52 0.52-1.36 0.52-1.893 0l-2.827-2.84c-0.249-0.249-0.389-0.587-0.389-0.94 0-0.175 0.034-0.347 0.101-0.509s0.165-0.308 0.288-0.431 0.27-0.221 0.431-0.288c0.161-0.067 0.334-0.101 0.509-0.101 0.353 0 0.691 0.14 0.94 0.389l1.893 1.893 4.72-4.72c0.507-0.507 1.36-0.507 1.867 0zM13.973 16.853c0.52 0.52 0.52 1.36 0 1.88l-5.64 5.667c-0.52 0.52-1.36 0.52-1.893 0l-2.84-2.853c-0.123-0.123-0.221-0.27-0.288-0.431s-0.101-0.334-0.101-0.509c0-0.175 0.034-0.347 0.101-0.509s0.165-0.308 0.288-0.431c0.123-0.123 0.27-0.221 0.431-0.288s0.334-0.101 0.509-0.101c0.175 0 0.347 0.034 0.509 0.101s0.308 0.165 0.431 0.288l1.893 1.893 4.72-4.72c0.507-0.507 1.36-0.507 1.88 0.013z"></path>
</symbol>

<symbol id="icon-code" viewBox="0 0 32 32">
<path d="M11.6 21.2l-5.2-5.2 5.2-5.2c0.123-0.122 0.222-0.267 0.289-0.428s0.101-0.332 0.101-0.506c0-0.174-0.034-0.346-0.101-0.506s-0.165-0.306-0.288-0.428c-0.122-0.124-0.267-0.222-0.428-0.289s-0.332-0.101-0.506-0.101c-0.174 0-0.346 0.034-0.506 0.101s-0.306 0.165-0.428 0.289l-6.12 6.12c-0.124 0.123-0.222 0.27-0.289 0.431s-0.101 0.334-0.101 0.509c0 0.175 0.034 0.348 0.101 0.509s0.165 0.308 0.289 0.431l6.12 6.133c0.52 0.52 1.347 0.52 1.867 0 0.123-0.122 0.222-0.267 0.289-0.428s0.101-0.332 0.101-0.506c0-0.174-0.034-0.346-0.101-0.506s-0.165-0.306-0.288-0.428zM20.4 21.2l5.2-5.2-5.2-5.2c-0.124-0.122-0.222-0.267-0.289-0.428s-0.101-0.332-0.101-0.506c0-0.174 0.035-0.346 0.101-0.506s0.165-0.306 0.289-0.428c0.122-0.124 0.267-0.222 0.428-0.289s0.332-0.101 0.506-0.101c0.174 0 0.346 0.034 0.506 0.101s0.306 0.165 0.428 0.289l6.12 6.12c0.52 0.52 0.52 1.36 0 1.88l-6.12 6.133c-0.122 0.124-0.267 0.222-0.428 0.289s-0.332 0.101-0.506 0.101c-0.174 0-0.346-0.035-0.506-0.101s-0.306-0.165-0.428-0.289c-0.124-0.122-0.222-0.267-0.289-0.428s-0.101-0.332-0.101-0.506c0-0.174 0.035-0.346 0.101-0.506s0.165-0.306 0.289-0.428z"></path>
</symbol>

<symbol id="icon-italic" viewBox="0 0 32 32">
<path d="M6.667 25.333v-3.333h5.333l4-12h-5.333v-3.333h13.333v3.333h-4.667l-4 12h4.667v3.333h-13.333z"></path>
</symbol>

<symbol id="icon-quote" viewBox="0 0 32 32">
<path d="M7.6 24l3.067-5.333c-1.467 0-2.722-0.522-3.767-1.567s-1.567-2.3-1.567-3.767c0-1.467 0.522-2.722 1.567-3.767s2.3-1.567 3.767-1.567c1.467 0 2.722 0.522 3.767 1.567s1.567 2.3 1.567 3.767c0 0.511-0.061 0.984-0.183 1.417s-0.305 0.85-0.551 1.249l-4.6 8h-3.067zM19.6 24l3.067-5.333c-1.467 0-2.722-0.522-3.767-1.567s-1.567-2.3-1.567-3.767c0-1.467 0.522-2.722 1.567-3.767s2.3-1.567 3.767-1.567c1.467 0 2.722 0.522 3.767 1.567s1.567 2.3 1.567 3.767c0 0.511-0.061 0.984-0.183 1.417s-0.305 0.85-0.551 1.249l-4.6 8h-3.067z"></path>
</symbol>

<symbol id="icon-link" viewBox="0 0 32 32">
<path d="M14.667 22.667h-5.333c-1.844 0-3.416-0.65-4.716-1.951s-1.95-2.872-1.951-4.716c-0.001-1.844 0.649-3.416 1.951-4.716s2.873-1.951 4.716-1.951h5.333v2.667h-5.333c-1.111 0-2.056 0.389-2.833 1.167s-1.167 1.722-1.167 2.833 0.389 2.056 1.167 2.833c0.778 0.778 1.722 1.167 2.833 1.167h5.333v2.667zM10.667 17.333v-2.667h10.667v2.667h-10.667zM17.333 22.667v-2.667h5.333c1.111 0 2.056-0.389 2.833-1.167s1.167-1.722 1.167-2.833-0.389-2.056-1.167-2.833c-0.778-0.778-1.722-1.167-2.833-1.167h-5.333v-2.667h5.333c1.844 0 3.417 0.65 4.717 1.951s1.95 2.872 1.949 4.716c-0.001 1.844-0.651 3.416-1.951 4.717s-2.872 1.951-4.716 1.949h-5.333z"></path>
</symbol>

<symbol id="icon-instagram" viewBox="0 0 32 32">
<path fill="#e4405f" style="fill: var(--color1, #e4405f)" d="M16 0c-4.347 0-4.889 0.020-6.596 0.096-1.704 0.080-2.864 0.348-3.884 0.744-1.052 0.408-1.945 0.956-2.835 1.845s-1.439 1.781-1.845 2.835c-0.396 1.020-0.665 2.18-0.744 3.884-0.080 1.707-0.096 2.249-0.096 6.596s0.020 4.889 0.096 6.596c0.080 1.703 0.348 2.864 0.744 3.884 0.408 1.051 0.956 1.945 1.845 2.835 0.889 0.888 1.781 1.439 2.835 1.845 1.021 0.395 2.181 0.665 3.884 0.744 1.707 0.080 2.249 0.096 6.596 0.096s4.889-0.020 6.596-0.096c1.703-0.080 2.864-0.349 3.884-0.744 1.051-0.408 1.945-0.957 2.835-1.845 0.888-0.889 1.439-1.78 1.845-2.835 0.395-1.020 0.665-2.181 0.744-3.884 0.080-1.707 0.096-2.249 0.096-6.596s-0.020-4.889-0.096-6.596c-0.080-1.703-0.349-2.865-0.744-3.884-0.408-1.052-0.957-1.945-1.845-2.835-0.889-0.889-1.78-1.439-2.835-1.845-1.020-0.396-2.181-0.665-3.884-0.744-1.707-0.080-2.249-0.096-6.596-0.096zM16 2.88c4.271 0 4.78 0.021 6.467 0.095 1.56 0.073 2.407 0.332 2.969 0.553 0.749 0.289 1.28 0.636 1.843 1.195 0.559 0.56 0.905 1.092 1.195 1.841 0.219 0.563 0.48 1.409 0.551 2.969 0.076 1.688 0.093 2.195 0.093 6.467s-0.020 4.78-0.099 6.467c-0.081 1.56-0.341 2.407-0.561 2.969-0.299 0.749-0.639 1.28-1.199 1.843-0.559 0.559-1.099 0.905-1.84 1.195-0.56 0.219-1.42 0.48-2.98 0.551-1.699 0.076-2.199 0.093-6.479 0.093-4.281 0-4.781-0.020-6.479-0.099-1.561-0.081-2.421-0.341-2.981-0.561-0.759-0.299-1.28-0.639-1.839-1.199-0.561-0.559-0.92-1.099-1.2-1.84-0.22-0.56-0.479-1.42-0.56-2.98-0.060-1.68-0.081-2.199-0.081-6.459 0-4.261 0.021-4.781 0.081-6.481 0.081-1.56 0.34-2.419 0.56-2.979 0.28-0.76 0.639-1.28 1.2-1.841 0.559-0.559 1.080-0.919 1.839-1.197 0.56-0.221 1.401-0.481 2.961-0.561 1.7-0.060 2.2-0.080 6.479-0.080zM16 7.784c-4.54 0-8.216 3.68-8.216 8.216 0 4.54 3.68 8.216 8.216 8.216 4.54 0 8.216-3.68 8.216-8.216 0-4.54-3.68-8.216-8.216-8.216zM16 21.333c-2.947 0-5.333-2.387-5.333-5.333s2.387-5.333 5.333-5.333 5.333 2.387 5.333 5.333-2.387 5.333-5.333 5.333zM26.461 7.46c0 1.060-0.861 1.92-1.92 1.92-1.060 0-1.92-0.861-1.92-1.92s0.861-1.919 1.92-1.919c1.057-0.001 1.92 0.86 1.92 1.919z"></path>
</symbol>

<symbol id="icon-facebook" viewBox="0 0 32 32">
<path fill="#1976d2" style="fill: var(--color1, #1976d2)" opacity="0.999" d="M3.281-0.031c8.458 0 16.917 0 25.375 0 1.792 0.417 2.896 1.521 3.313 3.313 0 8.458 0 16.917 0 25.375-0.417 1.792-1.521 2.896-3.313 3.313-2.229 0-4.458 0-6.688 0 0-3.667 0-7.333 0-11 1.001 0.021 2.001-0 3-0.063 0.661-1.639 1.328-3.274 2-4.906-1.667-0.031-3.333-0.042-5-0.031-0.010-1.459 0-2.917 0.031-4.375 0.125-0.334 0.365-0.531 0.719-0.594 1.083-0.031 2.166-0.042 3.25-0.031 0-1.667 0-3.333 0-5-1.584-0.010-3.167 0-4.75 0.031-2.446 0.405-4.103 1.769-4.969 4.094-0.083 0.375-0.167 0.75-0.25 1.125-0.031 1.583-0.042 3.166-0.031 4.75-1.333 0-2.667 0-4 0 0 1.667 0 3.333 0 5 1.333 0 2.667 0 4 0 0 3.667 0 7.333 0 11-4.229 0-8.458 0-12.688 0-1.792-0.417-2.896-1.521-3.313-3.313 0-8.458 0-16.917 0-25.375 0.417-1.792 1.521-2.896 3.313-3.313z"></path>
<path fill="#f9f9f9" style="fill: var(--color2, #f9f9f9)" d="M21.969 31.969c-2 0-4 0-6 0 0-3.667 0-7.333 0-11-1.333 0-2.667 0-4 0 0-1.667 0-3.333 0-5 1.333 0 2.667 0 4 0-0.010-1.584 0-3.167 0.031-4.75 0.083-0.375 0.167-0.75 0.25-1.125 0.866-2.324 2.522-3.689 4.969-4.094 1.583-0.031 3.166-0.042 4.75-0.031 0 1.667 0 3.333 0 5-1.084-0.010-2.167 0-3.25 0.031-0.354 0.062-0.593 0.26-0.719 0.594-0.031 1.458-0.042 2.916-0.031 4.375 1.667-0.010 3.333 0 5 0.031-0.672 1.632-1.339 3.267-2 4.906-0.999 0.062-1.999 0.083-3 0.063 0 3.667 0 7.333 0 11z"></path>
</symbol>

<symbol id="icon-tiktok" viewBox="0 0 29 32">
<path fill="#ff004f" style="fill: var(--color3, #ff004f)" d="M20.936 11.522c2.061 1.473 4.586 2.339 7.313 2.339v-5.245c-0.516 0-1.031-0.054-1.536-0.161v4.128c-2.727 0-5.251-0.866-7.313-2.339v10.703c0 5.354-4.343 9.694-9.699 9.694-1.999 0-3.856-0.604-5.4-1.64 1.761 1.8 4.218 2.917 6.935 2.917 5.357 0 9.7-4.34 9.7-9.695v-10.703h-0zM22.83 6.231c-1.053-1.15-1.745-2.636-1.895-4.28v-0.675h-1.455c0.366 2.088 1.616 3.873 3.35 4.954zM7.689 24.895c-0.589-0.771-0.907-1.715-0.905-2.685 0-2.449 1.986-4.434 4.437-4.434 0.457-0 0.911 0.070 1.346 0.208v-5.362c-0.509-0.070-1.022-0.099-1.535-0.088v4.174c-0.435-0.138-0.89-0.208-1.347-0.208-2.451 0-4.437 1.985-4.437 4.434 0 1.732 0.993 3.231 2.441 3.961z"></path>
<path fill="#000" style="fill: var(--color4, #000)" d="M19.4 10.245c2.062 1.472 4.586 2.339 7.313 2.339v-4.128c-1.522-0.324-2.869-1.119-3.883-2.225-1.734-1.082-2.983-2.866-3.35-4.954h-3.823v20.948c-0.009 2.442-1.992 4.42-4.437 4.42-1.441 0-2.721-0.686-3.532-1.75-1.448-0.73-2.441-2.23-2.441-3.961 0-2.449 1.986-4.434 4.437-4.434 0.47 0 0.922 0.073 1.347 0.208v-4.173c-5.263 0.109-9.495 4.406-9.495 9.692 0 2.639 1.054 5.030 2.764 6.778 1.543 1.036 3.401 1.64 5.4 1.64 5.357 0 9.699-4.34 9.699-9.695l-0-10.703z"></path>
<path fill="#00f2ea" style="fill: var(--color5, #00f2ea)" d="M26.713 8.456v-1.116c-1.373 0.002-2.718-0.382-3.883-1.109 1.031 1.128 2.388 1.906 3.883 2.225zM19.48 1.277c-0.035-0.2-0.062-0.4-0.080-0.602v-0.675h-5.278v20.948c-0.008 2.442-1.991 4.419-4.437 4.419-0.693 0.001-1.377-0.161-1.996-0.473 0.811 1.063 2.091 1.75 3.532 1.75 2.445 0 4.428-1.977 4.437-4.419v-20.948l3.823-0zM11.032 12.533v-1.188c-0.441-0.060-0.886-0.090-1.331-0.090-5.357 0-9.7 4.34-9.7 9.694 0 3.357 1.707 6.315 4.3 8.055-1.711-1.748-2.764-4.14-2.764-6.778 0-5.285 4.232-9.583 9.495-9.692z"></path>
</symbol>

<symbol id="icon-youtube" viewBox="0 0 46 32">
<path fill="#f00" style="fill: var(--color6, #f00)" d="M44.508 4.991c-0.261-0.965-0.77-1.844-1.477-2.551s-1.586-1.216-2.551-1.477c-3.532-0.963-17.746-0.963-17.746-0.963s-14.215 0.029-17.747 0.992c-0.965 0.261-1.844 0.77-2.551 1.477s-1.216 1.586-1.477 2.551c-1.068 6.275-1.483 15.837 0.029 21.861 0.261 0.965 0.77 1.844 1.477 2.551s1.586 1.216 2.551 1.477c3.532 0.963 17.746 0.963 17.746 0.963s14.214 0 17.746-0.963c0.965-0.261 1.844-0.77 2.551-1.477s1.216-1.586 1.477-2.551c1.127-6.284 1.474-15.84-0.029-21.891z"></path>
<path fill="#fff" style="fill: var(--color7, #fff)" d="M18.21 22.766l11.792-6.83-11.792-6.83v13.66z"></path>
</symbol>

<symbol id="icon-github" viewBox="0 0 32 32">
<path d="M16 2.667c-1.751 0-3.485 0.345-5.102 1.015s-3.088 1.652-4.326 2.89c-2.5 2.5-3.905 5.892-3.905 9.428 0 5.893 3.827 10.893 9.12 12.667 0.667 0.107 0.88-0.307 0.88-0.667v-2.253c-3.693 0.8-4.48-1.787-4.48-1.787-0.613-1.547-1.48-1.96-1.48-1.96-1.213-0.827 0.093-0.8 0.093-0.8 1.333 0.093 2.040 1.373 2.040 1.373 1.16 2.027 3.12 1.427 3.88 1.107 0.12-0.867 0.467-1.453 0.84-1.787-2.96-0.333-6.067-1.48-6.067-6.56 0-1.48 0.507-2.667 1.373-3.613-0.133-0.333-0.6-1.72 0.133-3.52 0 0 1.12-0.36 3.667 1.36 1.053-0.293 2.2-0.44 3.333-0.44s2.28 0.147 3.333 0.44c2.547-1.72 3.667-1.36 3.667-1.36 0.733 1.8 0.267 3.187 0.133 3.52 0.867 0.947 1.373 2.133 1.373 3.613 0 5.093-3.12 6.213-6.093 6.547 0.48 0.413 0.92 1.227 0.92 2.467v3.653c0 0.36 0.213 0.787 0.893 0.667 5.293-1.787 9.107-6.773 9.107-12.667 0-1.751-0.345-3.485-1.015-5.102s-1.652-3.088-2.89-4.326c-1.238-1.238-2.708-2.22-4.326-2.89s-3.352-1.015-5.102-1.015z"></path>
</symbol>

<symbol id="icon-google" viewBox="0 0 32 32">
<path fill="#ffc107" style="fill: var(--color8, #ffc107)" d="M29.074 13.389h-1.074v-0.055h-12v5.333h7.535c-1.099 3.105-4.053 5.333-7.535 5.333-4.418 0-8-3.582-8-8s3.582-8 8-8c2.039 0 3.895 0.769 5.307 2.026l3.771-3.771c-2.381-2.219-5.567-3.588-9.079-3.588-7.363 0-13.333 5.97-13.333 13.333s5.97 13.333 13.333 13.333c7.363 0 13.333-5.97 13.333-13.333 0-0.894-0.092-1.767-0.259-2.611z"></path>
<path fill="#ff3d00" style="fill: var(--color9, #ff3d00)" d="M4.204 9.794l4.381 3.213c1.185-2.935 4.056-5.007 7.415-5.007 2.039 0 3.895 0.769 5.307 2.026l3.771-3.771c-2.381-2.219-5.567-3.588-9.079-3.588-5.121 0-9.563 2.891-11.796 7.127z"></path>
<path fill="#4caf50" style="fill: var(--color10, #4caf50)" d="M16 29.333c3.444 0 6.573-1.318 8.939-3.461l-4.127-3.492c-1.383 1.053-3.074 1.622-4.813 1.62-3.468 0-6.413-2.211-7.522-5.297l-4.348 3.35c2.207 4.318 6.688 7.281 11.87 7.281z"></path>
<path fill="#1976d2" style="fill: var(--color1, #1976d2)" d="M29.074 13.389h-1.074v-0.055h-12v5.333h7.535c-0.526 1.478-1.473 2.769-2.725 3.714l0.002-0.001 4.127 3.492c-0.292 0.265 4.394-3.205 4.394-9.871 0-0.894-0.092-1.767-0.259-2.611z"></path>
</symbol>

<symbol id="icon-heading-1" viewBox="0 0 64 64">
<path fill-rule="evenodd" clip-rule="evenodd" d="M56 17C55.9994 16.4221 55.8318 15.8566 55.5175 15.3716C55.2032 14.8866 54.7555 14.5027 54.2282 14.2661C53.7009 14.0295 53.1165 13.9503 52.5452 14.0379C51.9739 14.1255 51.4401 14.3762 51.008 14.76L42.008 22.76C41.4499 23.2977 41.1216 24.0304 41.0917 24.8047C41.0618 25.5791 41.3327 26.335 41.8477 26.914C42.3626 27.4931 43.0817 27.8504 43.8542 27.9112C44.6268 27.972 45.3928 27.7314 45.992 27.24L50 23.68V47C50 47.7956 50.3161 48.5587 50.8787 49.1213C51.4413 49.6839 52.2044 50 53 50C53.7956 50 54.5587 49.6839 55.1213 49.1213C55.6839 48.5587 56 47.7956 56 47V17ZM10 17C10 16.2044 9.68393 15.4413 9.12132 14.8787C8.55871 14.3161 7.79565 14 7 14C6.20435 14 5.44129 14.3161 4.87868 14.8787C4.31607 15.4413 4 16.2044 4 17V46.984C4 47.7797 4.31607 48.5427 4.87868 49.1053C5.44129 49.6679 6.20435 49.984 7 49.984C7.79565 49.984 8.55871 49.6679 9.12132 49.1053C9.68393 48.5427 10 47.7797 10 46.984V35H26V46.984C26 47.7797 26.3161 48.5427 26.8787 49.1053C27.4413 49.6679 28.2044 49.984 29 49.984C29.7956 49.984 30.5587 49.6679 31.1213 49.1053C31.6839 48.5427 32 47.7797 32 46.984V17C32 16.2044 31.6839 15.4413 31.1213 14.8787C30.5587 14.3161 29.7956 14 29 14C28.2044 14 27.4413 14.3161 26.8787 14.8787C26.3161 15.4413 26 16.2044 26 17V29H10V17Z" fill="currentColor"/>
</symbol>

<symbol id="icon-heading-2" viewBox="0 0 64 64">
<path fill-rule="evenodd" clip-rule="evenodd" d="M10 17C10 16.2044 9.68393 15.4413 9.12132 14.8787C8.55871 14.3161 7.79565 14 7 14C6.20435 14 5.44129 14.3161 4.87868 14.8787C4.31607 15.4413 4 16.2044 4 17V46.984C4 47.7797 4.31607 48.5427 4.87868 49.1053C5.44129 49.6679 6.20435 49.984 7 49.984C7.79565 49.984 8.55871 49.6679 9.12132 49.1053C9.68393 48.5427 10 47.7797 10 46.984V35H26V46.984C26 47.7797 26.3161 48.5427 26.8787 49.1053C27.4413 49.6679 28.2044 49.984 29 49.984C29.7956 49.984 30.5587 49.6679 31.1213 49.1053C31.6839 48.5427 32 47.7797 32 46.984V17C32 16.2044 31.6839 15.4413 31.1213 14.8787C30.5587 14.3161 29.7956 14 29 14C28.2044 14 27.4413 14.3161 26.8787 14.8787C26.3161 15.4413 26 16.2044 26 17V29H10V17ZM43.612 24.132C43.9072 22.9519 44.5883 21.9043 45.5472 21.1556C46.506 20.4069 47.6875 20.0002 48.904 20H49.808C50.6954 19.9989 51.5613 20.2734 52.286 20.7857C53.0107 21.2979 53.5584 22.0226 53.8535 22.8595C54.1486 23.6965 54.1765 24.6044 53.9333 25.4579C53.6901 26.3114 53.1879 27.0683 52.496 27.624L38.056 39.248C37.0795 40.0311 36.3703 41.0983 36.0267 42.302C35.6831 43.5057 35.722 44.7864 36.1379 45.967C36.5539 47.1477 37.3263 48.1699 38.3486 48.8924C39.3708 49.6149 40.5922 50.0019 41.844 50H57C57.7956 50 58.5587 49.6839 59.1213 49.1213C59.6839 48.5587 60 47.7956 60 47C60 46.2044 59.6839 45.4413 59.1213 44.8787C58.5587 44.3161 57.7956 44 57 44H41.828L41.816 43.988L41.804 43.972V43.956L41.8082 43.9381L41.82 43.924L56.26 32.296C57.9186 30.9613 59.122 29.1448 59.7044 27.0972C60.2867 25.0495 60.2193 22.8715 59.5112 20.8638C58.8032 18.8561 57.4896 17.1176 55.7516 15.8882C54.0136 14.6588 51.9369 13.999 49.808 14H48.904C43.648 14 39.064 17.576 37.792 22.68L37.64 23.272C37.5444 23.6544 37.5251 24.0519 37.5831 24.4418C37.6411 24.8317 37.7753 25.2063 37.9781 25.5443C38.1809 25.8823 38.4483 26.1771 38.765 26.4117C39.0818 26.6464 39.4416 26.8164 39.824 26.912C40.2064 27.0076 40.6039 27.0269 40.9938 26.9689C41.3837 26.9109 41.7583 26.7767 42.0963 26.5739C42.4343 26.3711 42.7291 26.1037 42.9637 25.787C43.1984 25.4702 43.3684 25.1104 43.464 24.728L43.612 24.132Z" fill="currentColor"/>
</symbol>

<symbol id="icon-heading-3" viewBox="0 0 64 64">
<path fill-rule="evenodd" clip-rule="evenodd" d="M10 17C10 16.2044 9.68393 15.4413 9.12132 14.8787C8.55871 14.3161 7.79565 14 7 14C6.20435 14 5.44129 14.3161 4.87868 14.8787C4.31607 15.4413 4 16.2044 4 17V46.984C4 47.7797 4.31607 48.5427 4.87868 49.1053C5.44129 49.6679 6.20435 49.984 7 49.984C7.79565 49.984 8.55871 49.6679 9.12132 49.1053C9.68393 48.5427 10 47.7797 10 46.984V35H26V46.984C26 47.7797 26.3161 48.5427 26.8787 49.1053C27.4413 49.6679 28.2044 49.984 29 49.984C29.7956 49.984 30.5587 49.6679 31.1213 49.1053C31.6839 48.5427 32 47.7797 32 46.984V17C32 16.2044 31.6839 15.4413 31.1213 14.8787C30.5587 14.3161 29.7956 14 29 14C28.2044 14 27.4413 14.3161 26.8787 14.8787C26.3161 15.4413 26 16.2044 26 17V29H10V17ZM42.456 22.984C43.264 20.968 45.216 19.648 47.384 19.648H48.504C49.4015 19.6479 50.2693 19.9688 50.9509 20.5528C51.6324 21.1367 52.0825 21.9451 52.22 22.832L52.328 23.552C52.5086 24.7228 52.2306 25.9182 51.5517 26.8891C50.8729 27.8601 49.8457 28.5316 48.684 28.764L45.484 29.404C44.8447 29.5374 44.2773 29.9024 43.8908 30.4288C43.5043 30.9551 43.3259 31.6057 43.3899 32.2556C43.4539 32.9055 43.7558 33.5088 44.2375 33.9497C44.7193 34.3905 45.347 34.6378 46 34.644H50.84C51.3508 34.6434 51.8558 34.7527 52.3206 34.9645C52.7854 35.1763 53.1992 35.4856 53.5339 35.8715C53.8686 36.2574 54.1163 36.7108 54.2602 37.201C54.4041 37.6911 54.4409 38.2064 54.368 38.712C54.1618 40.1389 53.4996 41.4607 52.4801 42.4801C51.4607 43.4996 50.1389 44.1618 48.712 44.368L48.3 44.428C46.8607 44.6313 45.3935 44.3967 44.0893 43.7546C42.7852 43.1125 41.7045 42.0928 40.988 40.828L40.916 40.696C40.5623 40.1004 39.9892 39.6672 39.3198 39.4892C38.6504 39.3112 37.9379 39.4025 37.335 39.7437C36.7322 40.0849 36.287 40.6487 36.095 41.3143C35.9031 41.9799 35.9795 42.6942 36.308 43.304L36.38 43.432C37.6191 45.6252 39.491 47.3936 41.7511 48.5062C44.0111 49.6187 46.5542 50.0236 49.048 49.668L49.46 49.608C52.0216 49.242 54.3955 48.055 56.2253 46.2253C58.055 44.3955 59.242 42.0216 59.608 39.46C59.8582 37.7296 59.5897 35.9639 58.8364 34.3861C58.0831 32.8083 56.8789 31.4894 55.376 30.596C56.2783 29.5182 56.9402 28.2602 57.3175 26.9062C57.6948 25.5521 57.7788 24.1331 57.564 22.744L57.452 22.028C57.1256 19.8896 56.0433 17.9391 54.4014 16.5307C52.7596 15.1223 50.6672 14.3492 48.504 14.352H47.384C45.2657 14.3524 43.1962 14.9875 41.4423 16.1753C39.6884 17.3631 38.3306 19.0492 37.544 21.016C37.3979 21.3416 37.319 21.6933 37.3122 22.0501C37.3054 22.4069 37.3708 22.7613 37.5045 23.0922C37.6381 23.4231 37.8373 23.7235 38.09 23.9755C38.3427 24.2275 38.6437 24.4258 38.9749 24.5585C39.3062 24.6912 39.6608 24.7556 40.0176 24.7478C40.3744 24.74 40.7259 24.6602 41.051 24.5131C41.3762 24.3661 41.6682 24.1548 41.9097 23.892C42.1511 23.6293 42.3369 23.3204 42.456 22.984Z" fill="currentColor"/>
</symbol>

<symbol id="icon-heading-4" viewBox="0 0 64 64">
<path fill-rule="evenodd" clip-rule="evenodd" d="M57 17.0001C57 16.3722 56.803 15.76 56.4367 15.25C56.0704 14.7399 55.5532 14.3577 54.9582 14.1571C54.3631 13.9566 53.7201 13.9478 53.1198 14.132C52.5195 14.3163 51.9921 14.6843 51.612 15.1841L35.612 36.1841C35.2737 36.6289 35.0664 37.1594 35.0134 37.7157C34.9605 38.2721 35.0639 38.8321 35.3122 39.3328C35.5604 39.8335 35.9436 40.2549 36.4185 40.5495C36.8934 40.844 37.4412 41.0001 38 41.0001H51V46.9841C51 47.7798 51.3161 48.5428 51.8787 49.1054C52.4413 49.668 53.2044 49.9841 54 49.9841C54.7956 49.9841 55.5587 49.668 56.1213 49.1054C56.6839 48.5428 57 47.7798 57 46.9841V41.0001H58C58.7956 41.0001 59.5587 40.684 60.1213 40.1214C60.6839 39.5588 61 38.7958 61 38.0001C61 37.2045 60.6839 36.4414 60.1213 35.8788C59.5587 35.3162 58.7956 35.0001 58 35.0001H57V17.0001ZM51 25.8881V35.0001H44.056L51 25.8881ZM10 17.0001C10 16.6061 9.9224 16.216 9.77164 15.8521C9.62087 15.4881 9.3999 15.1574 9.12132 14.8788C8.84274 14.6002 8.51203 14.3792 8.14805 14.2285C7.78407 14.0777 7.39397 14.0001 7 14.0001C6.60603 14.0001 6.21593 14.0777 5.85195 14.2285C5.48797 14.3792 5.15726 14.6002 4.87868 14.8788C4.6001 15.1574 4.37913 15.4881 4.22836 15.8521C4.0776 16.216 4 16.6061 4 17.0001V46.9841C4 47.7798 4.31607 48.5428 4.87868 49.1054C5.44129 49.668 6.20435 49.9841 7 49.9841C7.79565 49.9841 8.55871 49.668 9.12132 49.1054C9.68393 48.5428 10 47.7798 10 46.9841V35.0001H26V46.9841C26 47.7798 26.3161 48.5428 26.8787 49.1054C27.4413 49.668 28.2044 49.9841 29 49.9841C29.7956 49.9841 30.5587 49.668 31.1213 49.1054C31.6839 48.5428 32 47.7798 32 46.9841V17.0001C32 16.2045 31.6839 15.4414 31.1213 14.8788C30.5587 14.3162 29.7956 14.0001 29 14.0001C28.2044 14.0001 27.4413 14.3162 26.8787 14.8788C26.3161 15.4414 26 16.2045 26 17.0001V29.0001H10V17.0001Z" fill="currentColor"/>
</symbol>

<symbol id="icon-heading-5" viewBox="0 0 64 64">
<path fill-rule="evenodd" clip-rule="evenodd" d="M10 17C10 16.2044 9.68393 15.4413 9.12132 14.8787C8.55871 14.3161 7.79565 14 7 14C6.20435 14 5.44129 14.3161 4.87868 14.8787C4.31607 15.4413 4 16.2044 4 17V46.984C4 47.7797 4.31607 48.5427 4.87868 49.1053C5.44129 49.6679 6.20435 49.984 7 49.984C7.79565 49.984 8.55871 49.6679 9.12132 49.1053C9.68393 48.5427 10 47.7797 10 46.984V35H26V46.984C26 47.7797 26.3161 48.5427 26.8787 49.1053C27.4413 49.6679 28.2044 49.984 29 49.984C29.7956 49.984 30.5587 49.6679 31.1213 49.1053C31.6839 48.5427 32 47.7797 32 46.984V17C32 16.2044 31.6839 15.4413 31.1213 14.8787C30.5587 14.3161 29.7956 14 29 14C28.2044 14 27.4413 14.3161 26.8787 14.8787C26.3161 15.4413 26 16.2044 26 17V29H10V17ZM42 14C40.6739 14 39.4021 14.5268 38.4645 15.4645C37.5268 16.4021 37 17.6739 37 19V30C36.9997 30.5663 37.1598 31.1211 37.4616 31.6003C37.7634 32.0794 38.1947 32.4634 38.7056 32.7077C39.2164 32.9521 39.786 33.0468 40.3485 32.9811C40.9109 32.9153 41.4433 32.6916 41.884 32.336L42.016 32.248C42.176 32.152 42.488 31.98 42.96 31.8C43.9 31.436 45.532 31 48 31C51.568 31 54.136 34.004 54.136 38C54.136 39.464 53.58 40.94 52.484 42.04C51.424 43.112 49.684 44 47 44C44.728 44 43.38 43.264 42.624 42.656C42.2544 42.3587 41.9309 42.0082 41.664 41.616L41.656 41.604C41.2932 40.8959 40.6639 40.3609 39.9067 40.1167C39.1494 39.8725 38.3261 39.9392 37.618 40.302C36.9099 40.6648 36.3749 41.2941 36.1307 42.0513C35.8865 42.8086 35.9532 43.6319 36.316 44.34L39 43L36.32 44.344V44.356L36.332 44.368L36.348 44.408L36.396 44.488L36.532 44.728C36.644 44.9173 36.8027 45.1493 37.008 45.424C37.416 45.968 38.024 46.664 38.876 47.344C40.62 48.736 43.272 50 47 50C51.108 50 54.44 48.592 56.748 46.268C58.9211 44.0651 60.1384 41.0944 60.136 38C60.136 31.636 55.752 25 48 25C46.3186 24.9891 44.6414 25.1676 43 25.532V20H56C56.7956 20 57.5587 19.6839 58.1213 19.1213C58.6839 18.5587 59 17.7956 59 17C59 16.2044 58.6839 15.4413 58.1213 14.8787C57.5587 14.3161 56.7956 14 56 14H42Z" fill="currentColor"/>
</symbol>

<symbol id="icon-heading-6" viewBox="0 0 64 64">
<path fill-rule="evenodd" clip-rule="evenodd" d="M10 17C10 16.2044 9.68393 15.4413 9.12132 14.8787C8.55871 14.3161 7.79565 14 7 14C6.20435 14 5.44129 14.3161 4.87868 14.8787C4.31607 15.4413 4 16.2044 4 17V46.984C4 47.7797 4.31607 48.5427 4.87868 49.1053C5.44129 49.6679 6.20435 49.984 7 49.984C7.79565 49.984 8.55871 49.6679 9.12132 49.1053C9.68393 48.5427 10 47.7797 10 46.984V35H26V46.984C26 47.7797 26.3161 48.5427 26.8787 49.1053C27.4413 49.6679 28.2044 49.984 29 49.984C29.7956 49.984 30.5587 49.6679 31.1213 49.1053C31.6839 48.5427 32 47.7797 32 46.984V17C32 16.2044 31.6839 15.4413 31.1213 14.8787C30.5587 14.3161 29.7956 14 29 14C28.2044 14 27.4413 14.3161 26.8787 14.8787C26.3161 15.4413 26 16.2044 26 17V29H10V17ZM49.6 27.128C47.0903 27.0428 44.5876 27.4407 42.228 28.3L49.092 20C52.644 20 54.264 21.004 56.296 22.264L56.32 22.276C56.996 22.6846 57.8059 22.8101 58.5739 22.6252C59.3418 22.4404 60.0059 21.9601 60.422 21.2886C60.838 20.6172 60.9724 19.8087 60.7961 19.0387C60.6197 18.2688 60.1468 17.5994 59.48 17.176C57.12 15.716 54.336 14 49.092 14C45.124 14 41.672 15.696 39.324 19.02C37.068 22.212 36 26.66 36 32C36 37.304 36.984 41.752 39.208 44.96C41.54 48.328 45.02 50 49.088 50C56.76 50 62 45.056 62 38.82C62 34.884 60.448 31.86 57.904 29.872C55.476 27.976 52.416 27.228 49.6 27.128ZM44.224 22.48C43.324 23.76 42.58 25.656 42.228 28.3L49.092 20C47.004 20 45.412 20.804 44.224 22.48ZM44.136 41.54C43.204 40.196 42.464 38.144 42.156 35.22C42.348 34.996 42.816 34.56 43.9 34.092C45.388 33.452 47.392 33.052 49.384 33.124C51.396 33.196 53.088 33.724 54.208 34.6C55.208 35.38 55.996 36.616 55.996 38.82C55.996 41.14 54.076 44 49.088 44C46.832 44 45.264 43.172 44.136 41.54Z" fill="currentColor"/>
</symbol>

</defs>
</svg>
